<svg viewBox="0 0 38 36" fill="none" xmlns="http://www.w3.org/2000/svg">
<rect x="0.5" y="0.5" width="37" height="35" rx="9.5" stroke="currentColor"/>
<path d="M16 14.4999C16 15.3284 15.3286 16 14.4998 16C13.6715 16 13 15.3283 13 14.4999C13 13.6716 13.6716 13 14.4998 13C15.3286 13.0001 16 13.6716 16 14.4999Z" fill="currentColor"/>
<path d="M16 21.4999C16 22.3284 15.3286 23 14.4998 23C13.6715 23 13 22.3283 13 21.4999C13 20.6716 13.6716 20 14.4998 20C15.3286 20.0001 16 20.6716 16 21.4999Z" fill="currentColor"/>
<path d="M25 14.4999C25 15.3284 24.3286 16 23.4998 16C22.6715 16 22 15.3283 22 14.4999C22 13.6716 22.6716 13 23.4998 13C24.3286 13.0001 25 13.6716 25 14.4999Z" fill="currentColor"/>
<path d="M25 21.4999C25 22.3284 24.3286 23 23.4998 23C22.6715 23 22 22.3283 22 21.4999C22 20.6716 22.6716 20 23.4998 20C24.3286 20.0001 25 20.6716 25 21.4999Z" fill="currentColor"/>
</svg>
